<svg id="svg" version="1.1" xmlns="http://www.w3.org/2000/svg" xmlns:xlink="http://www.w3.org/1999/xlink" width="400" height="400" viewBox="0, 0, 400,400"><g id="svgg"><path id="path0" d="M97.167 92.248 L 97.167 99.330 104.292 99.373 L 111.417 99.417 111.502 118.417 C 111.550 128.867,111.606 137.445,111.627 137.480 C 111.673 137.553,111.939 137.511,115.023 136.935 C 126.625 134.770,139.783 134.830,151.583 137.102 C 162.098 139.126,173.850 143.530,182.643 148.742 L 184.203 149.667 198.018 149.667 C 208.362 149.667,211.833 149.618,211.833 149.474 C 211.833 149.368,211.465 147.887,211.015 146.182 C 210.138 142.862,208.392 136.165,206.992 130.750 C 206.518 128.917,205.759 125.992,205.304 124.250 C 203.367 116.828,202.832 114.768,202.165 112.167 C 201.777 110.654,201.324 108.929,201.157 108.333 C 200.991 107.737,200.431 105.607,199.912 103.599 C 199.394 101.591,198.931 99.848,198.884 99.724 C 198.813 99.541,199.443 99.500,202.357 99.499 C 204.315 99.499,207.098 99.450,208.542 99.390 L 211.167 99.281 211.167 92.224 L 211.167 85.167 154.167 85.167 L 97.167 85.167 97.167 92.248 M267.333 106.612 C 258.276 107.640,251.561 113.055,248.680 121.653 C 247.858 124.106,247.825 124.657,247.718 137.542 L 247.617 149.667 254.800 149.667 L 261.983 149.667 262.033 138.042 L 262.083 126.417 262.602 125.333 C 263.743 122.949,265.548 121.572,268.293 120.991 L 269.170 120.805 269.127 113.694 L 269.083 106.583 268.500 106.565 C 268.179 106.554,267.654 106.576,267.333 106.612 M125.167 149.925 C 108.667 151.657,94.451 157.149,81.750 166.698 C 80.467 167.662,79.237 168.648,79.018 168.887 L 78.619 169.322 79.088 169.938 C 79.772 170.834,85.941 178.444,86.738 179.375 C 87.604 180.385,87.384 180.445,90.002 178.480 C 111.870 162.066,140.329 159.383,164.426 171.463 C 183.409 180.979,196.922 198.101,202.103 219.206 L 202.583 221.162 212.625 221.203 C 218.148 221.226,223.617 221.245,224.780 221.247 L 226.892 221.250 228.072 219.374 C 243.737 194.462,275.403 185.585,301.625 198.755 L 304.667 200.283 304.667 195.885 C 304.667 188.303,304.037 184.890,301.746 180.048 C 297.908 171.934,290.445 166.227,281.250 164.373 C 279.500 164.020,266.211 163.916,216.803 163.870 L 180.022 163.835 178.386 162.814 C 162.320 152.793,142.825 148.071,125.167 149.925 M127.214 178.520 C 101.620 180.627,79.773 201.930,76.406 228.062 C 71.473 266.340,104.508 298.401,142.378 292.087 C 170.890 287.334,191.424 261.414,189.683 232.375 C 187.716 199.537,160.188 175.805,127.214 178.520 M272.417 207.084 C 243.120 209.699,225.112 240.810,237.302 267.750 C 246.992 289.167,272.286 298.785,293.638 289.171 C 313.572 280.195,323.580 257.325,316.724 236.417 C 310.527 217.517,292.113 205.326,272.417 207.084 M137.833 214.737 C 154.109 219.032,159.630 238.866,147.837 250.672 C 134.376 264.147,111.593 254.600,111.629 235.500 C 111.655 221.782,124.866 211.314,137.833 214.737 M130.441 228.839 C 123.179 231.851,124.976 242.640,132.750 242.701 C 139.121 242.752,142.330 235.184,137.894 230.567 C 136.096 228.696,132.690 227.906,130.441 228.839 M204.167 246.310 L 204.167 257.167 211.921 257.167 L 219.674 257.167 219.546 255.792 C 219.053 250.534,219.483 243.004,220.578 237.724 C 220.802 236.645,220.952 235.729,220.911 235.688 C 220.870 235.647,217.086 235.578,212.501 235.534 L 204.167 235.454 204.167 246.310 M279.072 243.482 C 285.618 246.705,283.779 256.579,276.561 256.967 C 270.291 257.304,266.751 249.713,271.018 245.083 C 273.072 242.855,276.438 242.185,279.072 243.482 " stroke="none" fill="#f35444" fill-rule="evenodd"></path><path id="path1" d="M0.000 200.000 L 0.000 400.000 200.000 400.000 L 400.000 400.000 400.000 200.000 L 400.000 0.000 200.000 0.000 L 0.000 0.000 0.000 200.000 M211.167 92.250 L 211.167 99.500 206.609 99.500 C 204.102 99.500,201.375 99.548,200.548 99.607 L 199.045 99.713 199.940 103.148 C 202.059 111.288,202.916 114.582,203.588 117.167 C 203.981 118.679,204.604 121.079,204.974 122.500 C 205.343 123.921,205.955 126.283,206.334 127.750 C 206.712 129.217,207.347 131.654,207.745 133.167 C 208.142 134.679,208.934 137.717,209.505 139.917 C 210.076 142.117,210.876 145.173,211.281 146.709 C 211.687 148.244,211.973 149.575,211.916 149.667 C 211.849 149.776,207.029 149.833,198.052 149.833 L 184.290 149.833 182.270 148.689 C 161.183 136.740,137.918 132.792,114.422 137.176 C 112.891 137.461,111.589 137.645,111.528 137.584 C 111.467 137.522,111.396 128.929,111.370 118.488 L 111.324 99.504 104.204 99.460 L 97.083 99.417 97.040 92.417 C 97.016 88.567,97.032 85.323,97.076 85.208 C 97.140 85.042,108.704 85.000,154.161 85.000 L 211.167 85.000 211.167 92.250 M269.167 113.645 L 269.167 120.957 268.125 121.161 C 265.341 121.706,263.168 123.640,262.410 126.248 C 262.200 126.971,262.153 128.931,262.121 138.430 L 262.083 149.750 254.833 149.750 L 247.583 149.750 247.638 137.917 C 247.698 125.134,247.754 124.111,248.525 121.688 C 251.276 113.047,258.666 107.239,267.917 106.446 C 268.283 106.415,268.715 106.377,268.875 106.361 C 269.149 106.335,269.167 106.782,269.167 113.645 M142.509 149.999 C 155.445 151.503,167.334 155.735,178.742 162.897 L 180.232 163.833 227.075 163.840 C 277.994 163.847,280.054 163.877,282.930 164.646 C 295.380 167.977,303.528 177.653,304.655 190.445 C 304.838 192.524,304.906 200.205,304.743 200.369 C 304.693 200.418,303.736 199.972,302.618 199.377 C 275.945 185.188,243.940 194.234,227.438 220.625 L 226.995 221.333 214.754 221.333 L 202.513 221.333 202.355 220.708 C 201.125 215.825,200.394 213.371,199.288 210.417 C 194.376 197.294,184.855 184.870,173.917 177.307 C 173.458 176.990,172.596 176.393,172.000 175.981 C 162.986 169.744,149.944 165.164,138.833 164.335 C 120.961 163.002,104.247 167.906,89.903 178.694 C 88.704 179.596,87.647 180.333,87.553 180.333 C 87.311 180.333,78.759 169.936,78.548 169.386 C 78.447 169.122,78.903 168.718,81.583 166.690 C 91.684 159.051,102.763 153.996,115.250 151.331 C 118.578 150.620,121.656 150.176,127.250 149.599 C 129.183 149.399,139.727 149.676,142.509 149.999 M137.083 178.336 C 161.074 180.047,181.306 196.736,187.893 220.250 C 190.052 227.957,190.466 238.831,188.898 246.667 C 181.814 282.063,145.185 302.082,111.583 288.923 C 88.141 279.742,73.800 255.588,76.153 229.250 C 78.419 203.890,99.116 182.425,124.917 178.679 C 128.454 178.166,132.925 178.039,137.083 178.336 M280.191 207.003 C 312.445 210.171,329.779 246.925,311.751 273.920 C 291.247 304.623,244.328 296.699,234.757 260.917 C 227.068 232.173,250.719 204.108,280.191 207.003 M129.062 214.587 C 112.275 217.660,105.906 238.827,118.155 250.833 C 130.241 262.679,150.647 256.082,153.685 239.347 C 156.303 224.922,143.413 211.960,129.062 214.587 M135.012 228.658 C 141.819 230.776,141.616 240.788,134.730 242.582 C 131.336 243.466,127.914 241.870,126.381 238.689 C 123.647 233.017,129.006 226.788,135.012 228.658 M221.050 235.625 C 221.089 235.694,220.869 236.987,220.563 238.500 C 219.386 244.301,219.071 251.451,219.772 256.458 L 219.871 257.167 211.936 257.167 L 204.000 257.167 204.000 246.333 L 204.000 235.500 212.490 235.500 C 217.160 235.500,221.012 235.556,221.050 235.625 M273.917 243.329 C 268.992 244.961,267.660 251.699,271.581 255.142 C 277.248 260.118,285.710 253.523,282.308 246.782 C 280.778 243.752,277.148 242.258,273.917 243.329 " stroke="none" fill="#fbfbfb" fill-rule="evenodd"></path><path id="path2" d="M97.076 85.208 C 97.032 85.323,97.017 88.567,97.042 92.417 L 97.087 99.417 97.127 92.292 L 97.167 85.167 154.208 85.125 L 211.250 85.083 154.203 85.041 C 108.681 85.008,97.140 85.042,97.076 85.208 M199.458 99.621 C 199.756 99.658,200.244 99.658,200.542 99.621 C 200.840 99.584,200.596 99.553,200.000 99.553 C 199.404 99.553,199.160 99.584,199.458 99.621 M253.906 112.708 L 253.417 113.250 253.958 112.760 C 254.463 112.304,254.577 112.167,254.448 112.167 C 254.419 112.167,254.175 112.410,253.906 112.708 M264.073 123.208 L 263.583 123.750 264.125 123.260 C 264.630 122.804,264.743 122.667,264.615 122.667 C 264.586 122.667,264.342 122.910,264.073 123.208 M247.714 126.250 C 247.716 126.708,247.748 126.876,247.786 126.623 C 247.825 126.369,247.824 125.994,247.784 125.789 C 247.744 125.584,247.713 125.792,247.714 126.250 M262.072 132.917 C 262.072 135.117,262.096 135.994,262.125 134.865 C 262.153 133.737,262.153 131.937,262.124 130.865 C 262.095 129.794,262.072 130.717,262.072 132.917 M111.402 133.583 C 111.402 135.233,111.427 135.886,111.458 135.033 C 111.488 134.181,111.488 132.831,111.457 132.033 C 111.427 131.236,111.402 131.933,111.402 133.583 M131.625 135.458 C 132.473 135.488,133.860 135.488,134.708 135.458 C 135.556 135.427,134.862 135.403,133.167 135.403 C 131.471 135.403,130.777 135.427,131.625 135.458 M126.794 135.618 C 127.001 135.658,127.301 135.656,127.460 135.615 C 127.620 135.573,127.450 135.540,127.083 135.542 C 126.717 135.544,126.586 135.578,126.794 135.618 M124.294 135.785 C 124.501 135.824,124.801 135.823,124.960 135.781 C 125.120 135.739,124.950 135.707,124.583 135.709 C 124.217 135.711,124.086 135.745,124.294 135.785 M262.039 143.625 L 262.000 149.667 254.836 149.667 L 247.672 149.667 247.624 145.250 L 247.575 140.833 247.579 145.292 L 247.583 149.750 254.796 149.793 C 260.493 149.828,262.026 149.793,262.090 149.626 C 262.135 149.510,262.150 146.753,262.125 143.499 L 262.079 137.583 262.039 143.625 M129.792 149.625 C 130.915 149.653,132.752 149.653,133.875 149.625 C 134.998 149.596,134.079 149.572,131.833 149.572 C 129.587 149.572,128.669 149.596,129.792 149.625 M139.292 149.784 C 139.498 149.824,139.835 149.824,140.042 149.784 C 140.248 149.745,140.079 149.712,139.667 149.712 C 139.254 149.712,139.085 149.745,139.292 149.784 M191.042 149.792 C 194.869 149.817,201.131 149.817,204.958 149.792 C 208.785 149.767,205.654 149.746,198.000 149.746 C 190.346 149.746,187.215 149.767,191.042 149.792 M266.053 163.958 C 267.777 163.985,270.552 163.985,272.219 163.958 C 273.886 163.931,272.475 163.909,269.083 163.909 C 265.692 163.909,264.328 163.931,266.053 163.958 M127.877 164.286 C 128.131 164.325,128.506 164.324,128.711 164.284 C 128.916 164.244,128.708 164.213,128.250 164.214 C 127.792 164.216,127.624 164.248,127.877 164.286 M137.792 164.284 C 137.998 164.324,138.335 164.324,138.542 164.284 C 138.748 164.245,138.579 164.212,138.167 164.212 C 137.754 164.212,137.585 164.245,137.792 164.284 M129.621 178.287 C 129.917 178.324,130.442 178.324,130.788 178.288 C 131.134 178.252,130.892 178.222,130.250 178.221 C 129.608 178.221,129.325 178.250,129.621 178.287 M134.375 178.286 C 134.627 178.324,135.040 178.324,135.292 178.286 C 135.544 178.248,135.337 178.217,134.833 178.217 C 134.329 178.217,134.123 178.248,134.375 178.286 M182.833 184.917 C 183.608 185.696,184.280 186.333,184.326 186.333 C 184.372 186.333,183.775 185.696,183.000 184.917 C 182.225 184.137,181.553 183.500,181.507 183.500 C 181.462 183.500,182.058 184.137,182.833 184.917 M304.717 192.500 C 304.717 193.004,304.748 193.210,304.786 192.958 C 304.824 192.706,304.824 192.294,304.786 192.042 C 304.748 191.790,304.717 191.996,304.717 192.500 M95.158 192.458 L 94.583 193.083 95.208 192.509 C 95.790 191.974,95.910 191.833,95.783 191.833 C 95.755 191.833,95.474 192.115,95.158 192.458 M275.708 192.786 C 275.960 192.824,276.373 192.824,276.625 192.786 C 276.877 192.748,276.671 192.717,276.167 192.717 C 275.662 192.717,275.456 192.748,275.708 192.786 M171.000 192.885 C 171.000 192.914,171.244 193.158,171.542 193.427 L 172.083 193.917 171.594 193.375 C 171.138 192.870,171.000 192.757,171.000 192.885 M280.208 192.948 C 280.369 192.990,280.631 192.990,280.792 192.948 C 280.952 192.906,280.821 192.872,280.500 192.872 C 280.179 192.872,280.048 192.906,280.208 192.948 M174.500 196.417 C 174.811 196.737,175.103 197.000,175.149 197.000 C 175.195 197.000,174.978 196.737,174.667 196.417 C 174.356 196.096,174.064 195.833,174.018 195.833 C 173.972 195.833,174.189 196.096,174.500 196.417 M90.324 197.292 L 89.750 197.917 90.375 197.342 C 90.957 196.808,91.077 196.667,90.949 196.667 C 90.922 196.667,90.640 196.948,90.324 197.292 M272.960 206.951 C 273.168 206.991,273.468 206.990,273.627 206.948 C 273.786 206.906,273.617 206.874,273.250 206.875 C 272.883 206.877,272.753 206.911,272.960 206.951 M131.796 214.289 C 132.188 214.324,132.788 214.324,133.129 214.288 C 133.471 214.252,133.150 214.223,132.417 214.224 C 131.683 214.224,131.404 214.254,131.796 214.289 M306.167 219.250 C 306.665 219.754,307.109 220.167,307.155 220.167 C 307.201 220.167,306.831 219.754,306.333 219.250 C 305.835 218.746,305.391 218.333,305.345 218.333 C 305.299 218.333,305.669 218.746,306.167 219.250 M204.292 221.291 C 205.323 221.320,207.010 221.320,208.042 221.291 C 209.073 221.262,208.229 221.238,206.167 221.238 C 204.104 221.238,203.260 221.262,204.292 221.291 M189.712 231.500 C 189.712 231.912,189.745 232.081,189.784 231.875 C 189.824 231.669,189.824 231.331,189.784 231.125 C 189.745 230.919,189.712 231.088,189.712 231.500 M111.709 233.750 C 111.711 234.117,111.745 234.247,111.785 234.040 C 111.824 233.832,111.823 233.532,111.781 233.373 C 111.739 233.214,111.707 233.383,111.709 233.750 M154.057 235.583 C 154.058 236.317,154.087 236.596,154.122 236.204 C 154.157 235.812,154.157 235.212,154.121 234.871 C 154.085 234.529,154.057 234.850,154.057 235.583 M75.892 236.417 C 75.892 237.242,75.920 237.600,75.955 237.213 C 75.990 236.827,75.990 236.152,75.956 235.713 C 75.922 235.275,75.893 235.592,75.892 236.417 M111.712 237.333 C 111.712 237.746,111.745 237.915,111.784 237.708 C 111.824 237.502,111.824 237.165,111.784 236.958 C 111.745 236.752,111.712 236.921,111.712 237.333 M189.709 239.917 C 189.711 240.283,189.745 240.414,189.785 240.206 C 189.824 239.999,189.823 239.699,189.781 239.540 C 189.739 239.380,189.707 239.550,189.709 239.917 M137.906 240.708 L 137.417 241.250 137.958 240.760 C 138.256 240.491,138.500 240.248,138.500 240.219 C 138.500 240.090,138.362 240.203,137.906 240.708 M275.877 242.953 C 276.131 242.991,276.506 242.990,276.711 242.951 C 276.916 242.911,276.708 242.880,276.250 242.881 C 275.792 242.882,275.624 242.915,275.877 242.953 M219.379 247.500 C 219.379 247.912,219.411 248.081,219.451 247.875 C 219.491 247.669,219.491 247.331,219.451 247.125 C 219.411 246.919,219.379 247.088,219.379 247.500 M233.383 248.500 C 233.383 249.004,233.415 249.210,233.453 248.958 C 233.491 248.706,233.491 248.294,233.453 248.042 C 233.415 247.790,233.383 247.996,233.383 248.500 M318.887 249.333 C 318.887 249.929,318.917 250.173,318.954 249.875 C 318.991 249.577,318.991 249.090,318.954 248.792 C 318.917 248.494,318.887 248.737,318.887 249.333 M147.742 250.708 L 147.083 251.417 147.792 250.758 C 148.450 250.145,148.577 250.000,148.450 250.000 C 148.423 250.000,148.105 250.319,147.742 250.708 M233.379 251.333 C 233.379 251.746,233.411 251.915,233.451 251.708 C 233.491 251.502,233.491 251.165,233.451 250.958 C 233.411 250.752,233.379 250.921,233.379 251.333 M219.379 252.167 C 219.379 252.579,219.411 252.748,219.451 252.542 C 219.491 252.335,219.491 251.998,219.451 251.792 C 219.411 251.585,219.379 251.754,219.379 252.167 M174.740 274.542 L 174.250 275.083 174.792 274.594 C 175.297 274.138,175.410 274.000,175.281 274.000 C 175.252 274.000,175.009 274.244,174.740 274.542 M306.330 280.458 L 304.917 281.917 306.375 280.504 C 307.729 279.191,307.909 279.000,307.788 279.000 C 307.763 279.000,307.107 279.656,306.330 280.458 M244.833 279.379 C 244.833 279.404,245.415 279.986,246.125 280.671 L 247.417 281.917 246.171 280.625 C 245.014 279.425,244.833 279.257,244.833 279.379 M127.627 292.785 C 127.834 292.824,128.134 292.823,128.294 292.781 C 128.453 292.739,128.283 292.707,127.917 292.709 C 127.550 292.711,127.420 292.745,127.627 292.785 M280.542 292.782 C 280.702 292.823,280.965 292.823,281.125 292.782 C 281.285 292.740,281.154 292.705,280.833 292.705 C 280.512 292.705,280.381 292.740,280.542 292.782 M132.792 292.957 C 133.456 292.989,134.544 292.989,135.208 292.957 C 135.873 292.925,135.329 292.900,134.000 292.900 C 132.671 292.900,132.127 292.925,132.792 292.957 M274.701 292.957 C 275.316 292.989,276.366 292.989,277.034 292.957 C 277.703 292.926,277.200 292.899,275.917 292.899 C 274.633 292.899,274.086 292.925,274.701 292.957 " stroke="none" fill="#f6bab2" fill-rule="evenodd"></path><path id="path3" d="M131.958 178.289 C 132.348 178.324,132.985 178.324,133.375 178.289 C 133.765 178.254,133.446 178.225,132.667 178.225 C 131.887 178.225,131.569 178.254,131.958 178.289 " stroke="none" fill="#e5a49c" fill-rule="evenodd"></path><path id="path4" d="M104.207 99.457 L 111.332 99.504 111.375 115.085 L 111.419 130.667 111.418 115.042 L 111.417 99.417 104.250 99.414 L 97.083 99.411 104.207 99.457 M208.548 99.457 C 209.078 99.490,209.903 99.490,210.381 99.456 C 210.859 99.422,210.425 99.395,209.417 99.396 C 208.408 99.396,208.017 99.424,208.548 99.457 M247.730 128.917 C 247.731 130.017,247.758 130.445,247.790 129.868 C 247.823 129.292,247.823 128.392,247.790 127.868 C 247.757 127.345,247.730 127.817,247.730 128.917 M262.048 128.250 C 262.049 128.708,262.081 128.876,262.120 128.623 C 262.158 128.369,262.157 127.994,262.117 127.789 C 262.078 127.584,262.046 127.792,262.048 128.250 M129.044 135.453 C 129.297 135.491,129.672 135.490,129.877 135.451 C 130.082 135.411,129.875 135.380,129.417 135.381 C 128.958 135.382,128.791 135.415,129.044 135.453 M136.460 135.451 C 136.668 135.491,136.968 135.490,137.127 135.448 C 137.286 135.406,137.117 135.374,136.750 135.375 C 136.383 135.377,136.253 135.411,136.460 135.451 M125.627 135.618 C 125.834 135.658,126.134 135.656,126.294 135.615 C 126.453 135.573,126.283 135.540,125.917 135.542 C 125.550 135.544,125.420 135.578,125.627 135.618 M139.460 135.618 C 139.668 135.658,139.968 135.656,140.127 135.615 C 140.286 135.573,140.117 135.540,139.750 135.542 C 139.383 135.544,139.253 135.578,139.460 135.618 M137.708 149.786 C 137.960 149.824,138.373 149.824,138.625 149.786 C 138.877 149.748,138.671 149.717,138.167 149.717 C 137.662 149.717,137.456 149.748,137.708 149.786 M256.135 163.958 C 257.447 163.986,259.547 163.986,260.802 163.958 C 262.057 163.930,260.983 163.907,258.417 163.907 C 255.850 163.907,254.823 163.930,256.135 163.958 M132.368 164.123 C 132.982 164.155,134.032 164.156,134.701 164.124 C 135.370 164.092,134.867 164.066,133.583 164.066 C 132.300 164.065,131.753 164.091,132.368 164.123 M278.708 164.115 C 278.869 164.157,279.131 164.157,279.292 164.115 C 279.452 164.073,279.321 164.039,279.000 164.039 C 278.679 164.039,278.548 164.073,278.708 164.115 M126.458 164.284 C 126.665 164.324,127.002 164.324,127.208 164.284 C 127.415 164.245,127.246 164.212,126.833 164.212 C 126.421 164.212,126.252 164.245,126.458 164.284 M139.042 164.282 C 139.202 164.323,139.465 164.323,139.625 164.282 C 139.785 164.240,139.654 164.205,139.333 164.205 C 139.012 164.205,138.881 164.240,139.042 164.282 M78.906 168.875 L 78.417 169.417 78.958 168.927 C 79.463 168.471,79.577 168.333,79.448 168.333 C 79.419 168.333,79.175 168.577,78.906 168.875 M294.833 170.885 C 294.833 170.914,295.077 171.158,295.375 171.427 L 295.917 171.917 295.427 171.375 C 294.971 170.870,294.833 170.757,294.833 170.885 M127.792 178.451 C 127.998 178.491,128.335 178.491,128.542 178.451 C 128.748 178.411,128.579 178.379,128.167 178.379 C 127.754 178.379,127.585 178.411,127.792 178.451 M136.627 178.451 C 136.834 178.491,137.134 178.490,137.294 178.448 C 137.453 178.406,137.283 178.374,136.917 178.375 C 136.550 178.377,136.420 178.411,136.627 178.451 M180.750 182.833 C 181.108 183.200,181.438 183.500,181.484 183.500 C 181.530 183.500,181.275 183.200,180.917 182.833 C 180.559 182.467,180.228 182.167,180.182 182.167 C 180.137 182.167,180.392 182.467,180.750 182.833 M184.333 186.385 C 184.333 186.414,184.577 186.658,184.875 186.927 L 185.417 187.417 184.927 186.875 C 184.471 186.370,184.333 186.257,184.333 186.385 M273.377 192.786 C 273.631 192.825,274.006 192.824,274.211 192.784 C 274.416 192.744,274.208 192.713,273.750 192.714 C 273.292 192.716,273.124 192.748,273.377 192.786 M278.211 192.786 C 278.464 192.825,278.839 192.824,279.044 192.784 C 279.249 192.744,279.042 192.713,278.583 192.714 C 278.125 192.716,277.957 192.748,278.211 192.786 M270.708 192.948 C 270.869 192.990,271.131 192.990,271.292 192.948 C 271.452 192.906,271.321 192.872,271.000 192.872 C 270.679 192.872,270.548 192.906,270.708 192.948 M92.747 194.875 L 90.917 196.750 92.792 194.920 C 94.533 193.219,94.742 193.000,94.622 193.000 C 94.598 193.000,93.754 193.844,92.747 194.875 M304.737 196.583 C 304.737 198.417,304.761 199.189,304.791 198.301 C 304.821 197.412,304.821 195.912,304.791 194.967 C 304.761 194.023,304.737 194.750,304.737 196.583 M172.917 194.833 C 173.461 195.383,173.944 195.833,173.990 195.833 C 174.035 195.833,173.628 195.383,173.083 194.833 C 172.539 194.283,172.056 193.833,172.010 193.833 C 171.965 193.833,172.372 194.283,172.917 194.833 M279.708 207.115 C 279.869 207.157,280.131 207.157,280.292 207.115 C 280.452 207.073,280.321 207.039,280.000 207.039 C 279.679 207.039,279.548 207.073,279.708 207.115 M235.914 209.542 L 234.083 211.417 235.958 209.586 C 237.700 207.886,237.909 207.667,237.789 207.667 C 237.764 207.667,236.921 208.510,235.914 209.542 M133.960 214.285 C 134.168 214.324,134.468 214.323,134.627 214.281 C 134.786 214.239,134.617 214.207,134.250 214.209 C 133.883 214.211,133.753 214.245,133.960 214.285 M247.491 217.958 L 246.917 218.583 247.542 218.009 C 247.885 217.693,248.167 217.412,248.167 217.384 C 248.167 217.257,248.026 217.377,247.491 217.958 M118.573 219.708 L 118.083 220.250 118.625 219.760 C 118.923 219.491,119.167 219.248,119.167 219.219 C 119.167 219.090,119.029 219.203,118.573 219.708 M146.667 219.385 C 146.667 219.414,146.910 219.658,147.208 219.927 L 147.750 220.417 147.260 219.875 C 146.804 219.370,146.667 219.257,146.667 219.385 M244.573 220.875 L 244.083 221.417 244.625 220.927 C 245.130 220.471,245.243 220.333,245.115 220.333 C 245.086 220.333,244.842 220.577,244.573 220.875 M212.947 221.291 C 214.706 221.318,217.631 221.318,219.447 221.291 C 221.264 221.265,219.825 221.242,216.250 221.242 C 212.675 221.242,211.189 221.264,212.947 221.291 M132.125 228.454 C 132.423 228.491,132.910 228.491,133.208 228.454 C 133.506 228.417,133.262 228.387,132.667 228.387 C 132.071 228.387,131.827 228.417,132.125 228.454 M189.539 230.167 C 189.539 230.487,189.573 230.619,189.615 230.458 C 189.657 230.298,189.657 230.035,189.615 229.875 C 189.573 229.715,189.539 229.846,189.539 230.167 M127.573 230.708 L 127.083 231.250 127.625 230.760 C 127.923 230.491,128.167 230.248,128.167 230.219 C 128.167 230.090,128.029 230.203,127.573 230.708 M76.042 231.583 C 76.044 231.950,76.078 232.080,76.118 231.873 C 76.158 231.666,76.156 231.366,76.115 231.206 C 76.073 231.047,76.040 231.217,76.042 231.583 M189.712 232.833 C 189.712 233.246,189.745 233.415,189.784 233.208 C 189.824 233.002,189.824 232.665,189.784 232.458 C 189.745 232.252,189.712 232.421,189.712 232.833 M125.721 235.583 C 125.722 236.225,125.752 236.467,125.788 236.121 C 125.824 235.775,125.824 235.250,125.787 234.955 C 125.750 234.659,125.721 234.942,125.721 235.583 M111.545 235.500 C 111.545 235.912,111.578 236.081,111.618 235.875 C 111.657 235.669,111.657 235.331,111.618 235.125 C 111.578 234.919,111.545 235.088,111.545 235.500 M204.079 246.333 C 204.079 252.338,204.099 254.794,204.125 251.792 C 204.150 248.790,204.150 243.877,204.125 240.875 C 204.099 237.873,204.079 240.329,204.079 246.333 M218.208 235.623 C 218.644 235.657,219.356 235.657,219.792 235.623 C 220.227 235.588,219.871 235.560,219.000 235.560 C 218.129 235.560,217.773 235.588,218.208 235.623 M189.714 238.583 C 189.716 239.042,189.748 239.209,189.786 238.956 C 189.825 238.703,189.824 238.328,189.784 238.123 C 189.744 237.918,189.713 238.125,189.714 238.583 M189.539 241.167 C 189.539 241.487,189.573 241.619,189.615 241.458 C 189.657 241.298,189.657 241.035,189.615 240.875 C 189.573 240.715,189.539 240.846,189.539 241.167 M117.833 250.750 C 118.144 251.071,118.436 251.333,118.482 251.333 C 118.528 251.333,118.311 251.071,118.000 250.750 C 117.689 250.429,117.397 250.167,117.351 250.167 C 117.305 250.167,117.522 250.429,117.833 250.750 M318.705 253.167 C 318.705 253.487,318.740 253.619,318.782 253.458 C 318.823 253.298,318.823 253.035,318.782 252.875 C 318.740 252.715,318.705 252.846,318.705 253.167 M271.167 254.917 C 271.478 255.237,271.770 255.500,271.815 255.500 C 271.861 255.500,271.644 255.237,271.333 254.917 C 271.022 254.596,270.730 254.333,270.685 254.333 C 270.639 254.333,270.856 254.596,271.167 254.917 M219.539 255.667 C 219.539 255.987,219.573 256.119,219.615 255.958 C 219.657 255.798,219.657 255.535,219.615 255.375 C 219.573 255.215,219.539 255.346,219.539 255.667 M131.549 256.957 C 132.264 256.989,133.389 256.988,134.049 256.957 C 134.710 256.925,134.125 256.900,132.750 256.900 C 131.375 256.900,130.835 256.926,131.549 256.957 M91.167 274.750 C 91.478 275.071,91.770 275.333,91.815 275.333 C 91.861 275.333,91.644 275.071,91.333 274.750 C 91.022 274.429,90.730 274.167,90.685 274.167 C 90.639 274.167,90.856 274.429,91.167 274.750 M172.913 276.375 L 171.583 277.750 172.958 276.421 C 174.235 275.186,174.409 275.000,174.288 275.000 C 174.263 275.000,173.644 275.619,172.913 276.375 M93.917 277.500 C 94.275 277.867,94.605 278.167,94.651 278.167 C 94.697 278.167,94.441 277.867,94.083 277.500 C 93.725 277.133,93.395 276.833,93.349 276.833 C 93.303 276.833,93.559 277.133,93.917 277.500 M128.961 292.787 C 129.261 292.825,129.711 292.824,129.961 292.786 C 130.212 292.748,129.967 292.717,129.417 292.718 C 128.867 292.719,128.662 292.750,128.961 292.787 M279.542 292.782 C 279.702 292.823,279.965 292.823,280.125 292.782 C 280.285 292.740,280.154 292.705,279.833 292.705 C 279.512 292.705,279.381 292.740,279.542 292.782 " stroke="none" fill="#faa494" fill-rule="evenodd"></path></g></svg>